HIERARCHY
ROOT Hips
{
	OFFSET 0.000000 35.082581 0.000000
	CHANNELS 6 Xposition Yposition Zposition Xrotation Yrotation Zrotation 
	JOINT Spine
	{
		OFFSET 0.000000 6.876099 0.125700
		CHANNELS 3 Xrotation Yrotation Zrotation
		JOINT Spine1
		{
			OFFSET 0.000000 5.730043 0.104720
			CHANNELS 3 Xrotation Yrotation Zrotation
			JOINT Spine1_split
			{
				OFFSET 0.000000 5.730043 0.104720
				CHANNELS 3 Xrotation Yrotation Zrotation
				JOINT Spine2
				{
					OFFSET 0.000000 5.730043 0.104720
					CHANNELS 3 Xrotation Yrotation Zrotation
					JOINT Neck
					{
						OFFSET 0.000000 10.314075 0.188496
						CHANNELS 3 Xrotation Yrotation Zrotation
						JOINT Head
						{
							OFFSET 0.000000 7.643700 -2.377400
							CHANNELS 3 Xrotation Yrotation Zrotation
							JOINT HeadTop_End
							{
								OFFSET 0.000000 43.788605 -13.619600
								CHANNELS 3 Xrotation Yrotation Zrotation
								End Site
								{
									OFFSET 0.000000 0.000000 0.000000
								}
							}
						}
					}
					JOINT LeftShoulder
					{
						OFFSET 2.196100 4.412489 0.087492
						CHANNELS 3 Xrotation Yrotation Zrotation
						JOINT LeftShoulder_split
						{
							OFFSET 2.196100 4.412489 0.087492
							CHANNELS 3 Xrotation Yrotation Zrotation
							JOINT LeftArm
							{
								OFFSET 8.771219 -2.981674 -0.026999
								CHANNELS 3 Xrotation Yrotation Zrotation
								JOINT LeftForeArm
								{
									OFFSET 8.512804 0.000000 -0.000000
									CHANNELS 3 Xrotation Yrotation Zrotation
									JOINT LeftHand
									{
										OFFSET 18.484802 0.000000 -0.000000
										CHANNELS 3 Xrotation Yrotation Zrotation
										JOINT LeftHandThumb1
										{
											OFFSET 2.499420 -1.158070 2.653252
											CHANNELS 3 Xrotation Yrotation Zrotation
											JOINT LeftHandThumb2
											{
												OFFSET 2.370079 -1.368366 1.368366
												CHANNELS 3 Xrotation Yrotation Zrotation
												JOINT LeftHandThumb3
												{
													OFFSET 2.676727 -1.545410 1.545409
													CHANNELS 3 Xrotation Yrotation Zrotation
													JOINT LeftHandThumb4
													{
														OFFSET 1.692226 -0.977005 0.977007
														CHANNELS 3 Xrotation Yrotation Zrotation
														End Site
														{
															OFFSET 0.000000 0.000000 0.000000
														}
													}
												}
											}
										}
										JOINT LeftHandIndex1
										{
											OFFSET 7.924831 -0.457527 2.345128
											CHANNELS 3 Xrotation Yrotation Zrotation
											JOINT LeftHandIndex2
											{
												OFFSET 3.643303 0.000000 0.000000
												CHANNELS 3 Xrotation Yrotation Zrotation
												JOINT LeftHandIndex3
												{
													OFFSET 3.810799 0.000000 0.000000
													CHANNELS 3 Xrotation Yrotation Zrotation
													JOINT LeftHandIndex4
													{
														OFFSET 2.403702 0.000000 0.000000
														CHANNELS 3 Xrotation Yrotation Zrotation
														End Site
														{
															OFFSET 0.000000 0.000000 0.000000
														}
													}
												}
											}
										}
										JOINT LeftHandMiddle1
										{
											OFFSET 8.563995 0.000000 -0.000000
											CHANNELS 3 Xrotation Yrotation Zrotation
											JOINT LeftHandMiddle2
											{
												OFFSET 3.861618 0.000000 0.000000
												CHANNELS 3 Xrotation Yrotation Zrotation
												JOINT LeftHandMiddle3
												{
													OFFSET 3.701603 0.000000 0.000000
													CHANNELS 3 Xrotation Yrotation Zrotation
													JOINT LeftHandMiddle4
													{
														OFFSET 2.322544 0.000000 0.000000
														CHANNELS 3 Xrotation Yrotation Zrotation
														End Site
														{
															OFFSET 0.000000 0.000000 0.000000
														}
													}
												}
											}
										}
										JOINT LeftHandRing1
										{
											OFFSET 8.426460 -0.424637 -3.286992
											CHANNELS 3 Xrotation Yrotation Zrotation
											JOINT LeftHandRing2
											{
												OFFSET 3.126408 0.000000 0.000000
												CHANNELS 3 Xrotation Yrotation Zrotation
												JOINT LeftHandRing3
												{
													OFFSET 3.085026 0.000000 0.000000
													CHANNELS 3 Xrotation Yrotation Zrotation
													JOINT LeftHandRing4
													{
														OFFSET 1.644005 0.000000 0.000000
														CHANNELS 3 Xrotation Yrotation Zrotation
														End Site
														{
															OFFSET 0.000000 0.000000 0.000000
														}
													}
												}
											}
										}
									}
								}
							}
						}
					}
					JOINT RightShoulder
					{
						OFFSET -2.196100 4.412496 0.070690
						CHANNELS 3 Xrotation Yrotation Zrotation
						JOINT RightShoulder_split
						{
							OFFSET -2.196100 4.412496 0.070690
							CHANNELS 3 Xrotation Yrotation Zrotation
							JOINT RightArm
							{
								OFFSET -8.771282 -2.981682 -0.094208
								CHANNELS 3 Xrotation Yrotation Zrotation
								JOINT RightForeArm
								{
									OFFSET -8.494598 0.000000 0.000000
									CHANNELS 3 Xrotation Yrotation Zrotation
									JOINT RightHand
									{
										OFFSET -18.483803 0.000000 0.000001
										CHANNELS 3 Xrotation Yrotation Zrotation
										JOINT RightHandThumb1
										{
											OFFSET -2.527351 -1.008072 2.575253
											CHANNELS 3 Xrotation Yrotation Zrotation
											JOINT RightHandThumb2
											{
												OFFSET -2.321518 -1.340328 1.340329
												CHANNELS 3 Xrotation Yrotation Zrotation
												JOINT RightHandThumb3
												{
													OFFSET -2.657753 -1.534454 1.534455
													CHANNELS 3 Xrotation Yrotation Zrotation
													JOINT RightHandThumb4
													{
														OFFSET -1.807510 -1.043568 1.043567
														CHANNELS 3 Xrotation Yrotation Zrotation
														End Site
														{
															OFFSET 0.000000 0.000000 0.000000
														}
													}
												}
											}
										}
										JOINT RightHandIndex1
										{
											OFFSET -8.811420 0.015533 2.887987
											CHANNELS 3 Xrotation Yrotation Zrotation
											JOINT RightHandIndex2
											{
												OFFSET -3.537502 0.000000 0.000000
												CHANNELS 3 Xrotation Yrotation Zrotation
												JOINT RightHandIndex3
												{
													OFFSET -3.356201 0.000000 0.000000
													CHANNELS 3 Xrotation Yrotation Zrotation
													JOINT RightHandIndex4
													{
														OFFSET -1.933098 0.000000 0.000000
														CHANNELS 3 Xrotation Yrotation Zrotation
														End Site
														{
															OFFSET 0.000000 0.000000 0.000000
														}
													}
												}
											}
										}
										JOINT RightHandMiddle1
										{
											OFFSET -8.178135 0.000000 0.000000
											CHANNELS 3 Xrotation Yrotation Zrotation
											JOINT RightHandMiddle2
											{
												OFFSET -3.901302 0.000000 0.000000
												CHANNELS 3 Xrotation Yrotation Zrotation
												JOINT RightHandMiddle3
												{
													OFFSET -3.909599 0.000000 0.000000
													CHANNELS 3 Xrotation Yrotation Zrotation
													JOINT RightHandMiddle4
													{
														OFFSET -2.376003 0.000000 0.000000
														CHANNELS 3 Xrotation Yrotation Zrotation
														End Site
														{
															OFFSET 0.000000 0.000000 0.000000
														}
													}
												}
											}
										}
										JOINT RightHandRing1
										{
											OFFSET -7.559013 0.014137 -2.865403
											CHANNELS 3 Xrotation Yrotation Zrotation
											JOINT RightHandRing2
											{
												OFFSET -3.449306 0.000000 0.000000
												CHANNELS 3 Xrotation Yrotation Zrotation
												JOINT RightHandRing3
												{
													OFFSET -3.362106 0.000000 0.000000
													CHANNELS 3 Xrotation Yrotation Zrotation
													JOINT RightHandRing4
													{
														OFFSET -2.076401 0.000000 0.000000
														CHANNELS 3 Xrotation Yrotation Zrotation
														End Site
														{
															OFFSET 0.000000 0.000000 0.000000
														}
													}
												}
											}
										}
									}
								}
							}
						}
					}
				}
			}
		}
	}
	JOINT LeftUpLeg
	{
		OFFSET 10.205400 -3.823500 0.155100
		CHANNELS 3 Xrotation Yrotation Zrotation
		JOINT LeftLeg
		{
			OFFSET 0.708757 -12.982077 0.567790
			CHANNELS 3 Xrotation Yrotation Zrotation
			JOINT LeftFoot
			{
				OFFSET -0.708756 -10.717838 -2.184338
				CHANNELS 3 Xrotation Yrotation Zrotation
				JOINT LeftToeBase
				{
					OFFSET 0.108149 -7.191104 7.560241
					CHANNELS 3 Xrotation Yrotation Zrotation
					JOINT LeftToe_End
					{
						OFFSET 0.070230 0.081724 4.490308
						CHANNELS 3 Xrotation Yrotation Zrotation
						End Site
						{
							OFFSET 0.000000 0.000000 0.000000
						}
					}
				}
			}
		}
	}
	JOINT RightUpLeg
	{
		OFFSET -10.205400 -3.823500 0.005500
		CHANNELS 3 Xrotation Yrotation Zrotation
		JOINT RightLeg
		{
			OFFSET -0.708756 -12.982134 0.610632
			CHANNELS 3 Xrotation Yrotation Zrotation
			JOINT RightFoot
			{
				OFFSET 0.708754 -10.717769 -1.945823
				CHANNELS 3 Xrotation Yrotation Zrotation
				JOINT RightToeBase
				{
					OFFSET -0.108140 -7.191069 7.372968
					CHANNELS 3 Xrotation Yrotation Zrotation
					JOINT RightToe_End
					{
						OFFSET -0.070227 0.081735 4.479403
						CHANNELS 3 Xrotation Yrotation Zrotation
						End Site
						{
							OFFSET 0.000000 0.000000 0.000000
						}
					}
				}
			}
		}
	}
}
MOTION
Frames: 4
Frame Time: 0.016667
-0.993938 31.019634 -0.740411 1.758697 -44.633999 4.631073 6.688097 0.589642 -0.662849 -0.557035 1.560413 -1.610233 0.000000 0.000000 0.000000 -0.534577 1.560476 -1.609753 -19.005367 -1.508394 20.421624 -4.556857 11.720421 -16.000780 -0.000003 0.000001 0.000001 -8.631163 -5.317978 -15.297445 0.000000 0.000000 0.000000 0.075335 -2.626970 -31.066835 42.317520 -37.063349 15.466012 -23.800358 3.779298 5.091212 7.895958 12.754501 1.888103 -2.399862 10.098201 -6.912119 -0.568294 -1.710780 -0.126062 -0.000002 -0.000001 0.000003 10.366014 -5.431328 -20.260067 0.012390 0.242542 -14.888675 0.039945 0.202428 -15.802001 -0.000000 0.000000 -0.000000 8.099320 -3.521119 -16.129447 0.036819 0.594739 -11.734523 0.066876 0.099135 -13.782860 0.000000 0.000000 0.000000 7.437959 -2.616130 -14.483980 -0.036244 0.187706 -10.043036 0.074411 0.705349 -11.823650 -0.000001 0.000001 -0.000000 -0.620546 15.164832 -23.726522 0.000000 0.000000 0.000000 -69.097069 11.570644 13.062496 113.321588 148.813757 -130.632504 -14.646386 20.622243 10.268457 0.299571 -0.474254 0.374526 -3.620653 -7.484584 8.065540 -7.732050 18.632392 10.285510 0.000004 -0.000002 0.000001 10.001362 7.473632 21.241239 -0.008306 -0.266170 15.389806 0.024016 -0.209798 16.753276 0.000000 -0.000001 -0.000002 6.820051 4.437976 24.757443 0.121750 -0.593782 18.466453 0.129275 -0.058505 20.393239 -0.000000 0.000001 -0.000000 4.875295 1.715982 32.191935 -0.003212 -0.241529 22.203673 0.216429 -0.686981 23.470777 0.000000 -0.000001 -0.000000 -32.637994 2.809523 19.035027 22.366607 -10.265493 3.388933 7.145193 -1.945211 -24.396980 -0.682247 1.033305 1.622958 0.000000 -0.000002 0.000000 -5.774284 -5.768977 -24.939447 37.145116 -5.951320 -7.407580 -24.123670 -14.056166 31.835105 -3.009241 -0.947788 -1.024307 -0.000000 -0.000002 -0.000000 
-0.831542 30.971630 -0.757782 1.844974 -45.590393 4.842844 6.824122 0.610377 -0.584000 -0.284722 1.586130 -1.496924 0.000000 0.000000 0.000000 -0.262263 1.586182 -1.496442 -19.292209 0.711458 20.367004 -3.643174 13.440622 -15.407659 0.000001 0.000000 0.000001 -8.545911 -5.440109 -14.847532 0.000000 0.000000 0.000000 0.040947 -2.007562 -31.692214 42.522528 -37.721181 16.179349 -23.412162 3.306882 4.559595 7.803314 12.376354 1.963688 -2.337380 10.219274 -6.846313 -0.549674 -1.671628 -0.089622 -0.000002 0.000001 0.000001 10.515337 -5.092628 -20.325958 0.011409 0.243637 -15.207502 0.039224 0.204136 -16.203084 0.000000 -0.000000 -0.000000 8.128697 -3.265506 -16.334843 0.039433 0.596850 -12.096715 0.072119 0.102304 -14.362020 0.000000 -0.000001 0.000000 7.412088 -2.391973 -14.908261 -0.036558 0.190007 -10.461728 0.079904 0.708817 -12.423734 0.000000 -0.000000 -0.000000 -1.211228 15.565854 -20.539046 0.000000 0.000000 0.000000 -65.286350 12.486774 13.348869 113.302286 142.450780 -129.003777 -15.346272 19.991260 10.507287 0.841588 -1.185491 0.646261 -3.543945 -7.625401 7.985601 -7.479437 18.180128 9.940032 0.000001 0.000003 -0.000002 10.272564 7.143732 23.988125 -0.006352 -0.268630 17.205516 0.030106 -0.210437 18.918787 -0.000000 -0.000004 -0.000000 6.758846 4.033193 27.064515 0.133522 -0.599034 20.307585 0.143195 -0.063033 22.448388 0.000000 0.000001 -0.000000 4.642713 1.320740 34.431769 -0.002019 -0.250343 23.879687 0.235115 -0.687129 25.274927 0.000000 0.000001 0.000000 -32.497736 3.002206 19.394501 22.982694 -9.672510 2.841425 6.343428 -1.747817 -24.139726 -0.494933 1.041985 1.287106 0.000000 -0.000003 0.000000 -7.443255 -5.078616 -25.366489 38.402834 -5.156316 -8.035796 -24.017436 -13.970805 32.075658 -2.472656 -0.956156 -1.032034 -0.000000 0.000001 0.000000 
-0.671065 30.919094 -0.775876 1.943319 -46.542128 5.067586 6.981516 0.627659 -0.519540 0.030504 1.602059 -1.410630 0.000000 0.000000 0.000000 0.052969 1.602115 -1.410149 -19.678868 2.847928 20.261700 -2.884404 15.081104 -14.720876 -0.000002 -0.000001 -0.000000 -8.451883 -5.621930 -14.376223 0.000000 0.000000 0.000000 -0.075746 -1.533863 -32.297936 42.235393 -38.238578 16.524099 -22.717008 2.721492 4.212286 7.702774 11.981697 2.047359 -2.271944 10.346031 -6.777521 -0.530373 -1.630626 -0.051305 -0.000003 0.000003 -0.000000 10.666646 -4.778039 -20.352540 0.010614 0.244531 -15.498645 0.038633 0.205765 -16.591262 0.000001 0.000001 -0.000000 8.160056 -3.018647 -16.524661 0.041921 0.599033 -12.447962 0.077598 0.105438 -14.954462 0.000000 0.000001 0.000000 7.387555 -2.161909 -15.340880 -0.036739 0.192300 -10.886795 0.085617 0.712407 -13.047594 -0.000000 -0.000000 -0.000001 -1.837991 15.913864 -17.234377 0.000000 0.000000 0.000000 -61.208617 13.459276 13.486396 111.295535 139.193477 -126.470119 -13.055750 19.376670 10.856562 1.302483 -1.793408 0.752540 -3.461109 -7.778553 7.899722 -7.223425 17.713877 9.587553 0.000002 -0.000003 0.000002 10.560504 6.834446 26.258659 -0.005029 -0.270962 18.813691 0.035085 -0.210911 20.813979 -0.000000 -0.000001 -0.000000 6.734478 3.630435 28.949241 0.144546 -0.603057 21.917406 0.156283 -0.066268 24.248160 0.000000 0.000001 0.000001 4.449672 0.905854 36.260347 -0.000537 -0.257385 25.307384 0.251675 -0.686034 26.832699 0.000000 -0.000003 -0.000002 -32.564539 3.106017 19.763239 23.883486 -9.130200 2.301226 5.683685 -1.597372 -23.891450 -0.321653 1.048725 0.978174 -0.000000 0.000001 0.000000 -9.101826 -4.347813 -25.766358 39.644474 -4.363048 -8.611765 -23.912443 -13.857338 32.270356 -2.157463 -0.960754 -1.044672 -0.000000 -0.000000 -0.000000 
-0.515273 30.858868 -0.790305 2.054703 -47.480292 5.303293 7.156905 0.645183 -0.463700 0.381791 1.616026 -1.339484 0.000000 0.000000 0.000000 0.404246 1.616065 -1.339002 -20.090180 4.892767 20.079767 -2.370499 16.634116 -14.025588 -0.000002 0.000001 0.000000 -8.350771 -5.895206 -13.889765 0.000000 0.000000 0.000000 -0.307290 -1.191896 -32.855542 41.504905 -38.584637 16.501886 -21.860760 2.062553 4.067443 7.595161 11.572946 2.139296 -2.203550 10.479053 -6.705534 -0.511605 -1.591986 -0.013288 -0.000003 0.000005 -0.000002 10.817046 -4.496435 -20.333350 0.009942 0.245464 -15.754670 0.038040 0.207060 -16.959747 0.000000 0.000000 0.000000 8.192547 -2.786676 -16.693590 0.044370 0.601068 -12.787688 0.083372 0.108710 -15.552611 -0.000000 -0.000002 0.000000 7.364245 -1.930027 -15.779272 -0.036712 0.194724 -11.318096 0.091605 0.716179 -13.690480 0.000000 -0.000001 0.000001 -2.473707 16.306137 -13.905155 0.000000 0.000000 0.000000 -56.841268 14.356166 13.304801 109.584341 135.172271 -124.529361 -12.518411 18.763421 11.455891 1.709453 -2.341682 0.715079 -3.375383 -7.937535 7.810754 -6.962829 17.230496 9.226012 -0.000000 -0.000002 -0.000000 10.848330 6.547874 27.989733 -0.004354 -0.273183 20.162283 0.038661 -0.211268 22.390207 -0.000000 0.000003 -0.000000 6.739369 3.239586 30.352302 0.154417 -0.605508 23.251909 0.167929 -0.067487 25.754470 -0.000000 -0.000001 -0.000003 4.297152 0.478140 37.613647 0.001111 -0.262406 26.447625 0.265721 -0.683835 28.102192 0.000002 0.000005 0.000003 -32.699565 3.198633 20.092726 24.911979 -8.608849 1.825136 5.000256 -1.464524 -23.610041 -0.279857 1.051703 0.914539 0.000000 0.000001 0.000000 -10.758139 -3.627689 -26.241949 40.893251 -3.491007 -8.964102 -23.850496 -13.682167 32.322313 -2.001128 -0.963204 -1.060800 0.000000 -0.000001 -0.000000 
